# xmcd
# Track frame offsets:
# 197
# 12382
# 27532
# 41897
# 58190
# 72100
# 83762
# 95082
# 108487
# 121187
# 133090
#
# Disc length: 1952 seconds
# Revision: 0
# Processed by: cddbd v1.4PL0 Copyright (c) Steve Scherf et al.
# Submitted via: VisiTrax 2.9.5.181 - For more info visit www.synapsa.com
#
DISCID=9b079e0b
DTITLE=Muzzy Van Hossmear's Glad Rag Band - Swing Your Partner - Country Tim
DTITLE=e Square Dance (with calls)
DYEAR=1992
DGENRE=Square Dance
TTITLE0=Marching Through Georgia
TTITLE1=Promenade Around
TTITLE2=Jingle Bells
TTITLE3=Circle Around
TTITLE4=Red Wing
TTITLE5=Mocking Bird
TTITLE6=Forward Circle (Turkey In The Straw)
TTITLE7=Irish Washerwoman
TTITLE8=Han In Hand Forward Six
TTITLE9=Rose Of San Antone
TTITLE10=Swing Your Partners All
EXTD=
EXTT0=
EXTT1=
EXTT2=
EXTT3=
EXTT4=
EXTT5=
EXTT6=
EXTT7=
EXTT8=
EXTT9=
EXTT10=
PLAYORDER=
